<?xml version="1.0" encoding="UTF-8"?>
<svg id="Layer_1" data-name="Layer 1" xmlns="http://www.w3.org/2000/svg" xmlns:xlink="http://www.w3.org/1999/xlink" viewBox="0 0 426.56 349.73">
  <defs>
    <style>
      .cls-1 {
        fill: #45c1b2;
      }

      .cls-2, .cls-3 {
        fill: #1b293e;
      }

      .cls-4 {
        fill: #43c6d0;
      }

      .cls-3 {
        font-family: BalooChettan2-Bold, 'Baloo Chettan 2';
        font-size: 99px;
        font-variation-settings: 'wght' 700;
        font-weight: 700;
      }

      .cls-5 {
        fill: #4cd8c9;
      }

      .cls-6 {
        letter-spacing: -.01em;
      }

      .cls-7 {
        fill: #30a6cd;
      }

      .cls-8 {
        fill: url(#linear-gradient);
      }
    </style>
    <linearGradient id="linear-gradient" x1="199.77" y1="208.33" x2="199.77" y2=".11" gradientUnits="userSpaceOnUse">
      <stop offset="0" stop-color="#319fc7"/>
      <stop offset="1" stop-color="#4ad1b5"/>
    </linearGradient>
  </defs>
  <g>
    <g>
      <path class="cls-2" d="M187.16,207.55c22.56,4.04,31.3-8.18,41.17-25.33,24.2-42.06,43.2-87.59,67.44-129.56,1.13-1.95,2.89-4.47,4.39-6.11,9.92-10.82,35.56-12.39,49.49-10.99,14.15,1.43,14.26,15.19,2.95,16.92-4.76.73-10.63-1.02-15.18.82-5.85,2.36-7.71,10.98-1.8,14.29,4.72,2.65,28.47.2,36.1.9,13.42,1.24,13.36,18.52-.05,20.05-14.42,1.64-35.38-2.5-48.77.23-9.14,1.86-14.24,15.99-3.17,17.71,9.74,1.52,22.81-.93,32.99.01,12.99,1.2,13.43,17.32,2.9,18.99-12.99,2.05-44.57-3.4-54.4,2.6-2.46,1.5-4.68,5.33-6.21,7.79-11.55,18.61-22.45,50.72-35.81,66.19-13.3,15.4-56.76,17.23-72.02,5.48Z"/>
      <path class="cls-2" d="M221.16,109.55c2.76,5.38,9.5,18.19,11.05,23.45,4.1,13.96-13.64,30.01-27.06,29.1-19.43-32.7-35.51-67.47-54.82-100.22-5.18-8.78-10.8-19.16-19.77-24.19-3.54-1.99-7.94-2.06-11.41-4.14,23.17,0,53.57-4.3,68.82,16.68,10.18,14,24.95,43.26,33.18,59.32Z"/>
      <path class="cls-2" d="M377.88.77c4.18-.94,37.39-1.03,41.77-.19,8.39,1.61,10.04,17.35-.04,18.92-8.49,1.32-31.44,2.16-39.5.62-11.6-2.23-11.69-17.22-2.23-19.34Z"/>
      <path class="cls-2" d="M314.16,19.55c3.22-4.79,5.15-8.03,10.09-11.41,4.92-3.36,10.82-4.65,15.91-7.59,3.77.1,8.82-.57,12.29.21,6.75,1.52,10.09,11.43,4.69,16.26-5.97,5.34-34.12,1.18-42.98,2.53Z"/>
      <path class="cls-2" d="M400.89,68.78c7.49-1.51,20.51-1.08,22.1,8.52,1.94,11.68-13.66,12.18-21.35,11.27-11.56-1.36-11.62-17.6-.75-19.79Z"/>
    </g>
    <g>
      <path class="cls-8" d="M340.16.55c-5.09,2.94-10.99,4.23-15.91,7.59-4.94,3.38-6.88,6.62-10.09,11.41-5.51,8.2-10.23,17.86-14,27-1.5,1.64-3.26,4.16-4.39,6.11-24.24,41.97-43.23,87.5-67.44,129.56-9.87,17.15-18.61,29.37-41.17,25.33-10.94-8.42-15.64-24.95-23.19-36.31-1.11-1.67-2.72-4.71-4.26-5.74-8.43-5.6-44.67,7.19-41.32-13.2,2.47-15.09,30.69-.47,28.6-15.99-.9-6.7-7.32-10.12-13.34-10.75-9.93-1.05-20.45,1.54-30.93-.07-5.75-.88-8.54-6.56-7.09-11.97,2.88-10.76,15.74-5.89,23.96-7.04,12.26-1.71,5.6-16.83-3.91-17.96-14.4-1.71-32.68,1.95-46.93-.07-11.55-1.63-12.48-16.88-2.62-19.43,10.11-2.62,45.14,6.23,39.57-11.53-2.81-8.97-15.36-4.95-21.99-6-10.06-1.59-10.32-16.65.92-17.97,9.87-1.16,24.1.03,34.52.02,3.47,2.08,7.87,2.15,11.41,4.14,8.96,5.03,14.59,15.41,19.77,24.19,19.31,32.75,35.38,67.52,54.82,100.22,13.42.91,31.16-15.15,27.06-29.1-1.54-5.25-8.29-18.06-11.05-23.45l48-92.5C284.5-2.67,317.55-.03,340.16.55Z"/>
      <path class="cls-1" d="M6.88,68.77c3.63-.82,32.13-.76,35.34.23,9.1,2.8,8.28,17.81-2.62,19.49-4.87.75-29.07.7-33.27-.6-9.07-2.8-7.95-17.22.55-19.12Z"/>
      <path class="cls-7" d="M84.87,144.76c8.61-1.95,25.52-.64,22.9,11.83-1.86,8.87-13.93,8.83-21.13,7.98-11.98-1.42-11.96-17.51-1.77-19.81Z"/>
      <path class="cls-4" d="M59.88,106.77c2.99-.67,12.56-.61,15.81-.23,11.43,1.34,11.07,17.36.92,18.97-2.88.45-16.16.48-18.42-.46-7.11-2.98-6.76-16.37,1.69-18.27Z"/>
      <path class="cls-5" d="M377.88,35.77c3.68-.82,15.11-.66,18.23,1.35,3.77,2.43,4.1,9.13,1.54,12.43-2.76,3.56-18.77,3.54-22.89.92-5.87-3.73-3.6-13.19,3.12-14.69Z"/>
    </g>
  </g>
  <text class="cls-3" transform="translate(48.46 315.18)"><tspan x="0" y="0">VI</tspan><tspan class="cls-6" x="90.78" y="0">Z</tspan><tspan x="144.94" y="0">OFIT</tspan></text>
</svg>