<?xml version="1.0" encoding="UTF-8"?>
<svg id="Camada_1" data-name="Camada 1" xmlns="http://www.w3.org/2000/svg" viewBox="0 0 790.44 790.37">
  <defs>
    <style>
      .cls-1 {
        fill: #fff;
      }
    </style>
  </defs>
  <path class="cls-1" d="M605.18,145.51c-26.46,0-46.3,19.84-46.3,46.3s19.84,46.3,46.3,46.3,46.3-19.84,46.3-46.3c0-26.46-19.84-46.3-46.3-46.3Z"/>
  <path class="cls-1" d="M396.84,205.03c-109.13,0-195.11,89.29-195.11,195.11s89.29,195.11,195.11,195.11,195.11-89.29,195.11-195.11-85.98-195.11-195.11-195.11ZM396.84,525.81c-69.45,0-125.67-56.22-125.67-125.67s56.22-125.67,125.67-125.67,125.67,56.22,125.67,125.67-56.22,125.67-125.67,125.67Z"/>
  <path class="cls-1" d="M555.57,0H241.41C105.82,0,0,105.82,0,238.1v314.16c0,132.28,105.82,238.1,238.1,238.1h314.16c132.28,0,238.1-105.82,238.1-238.1V238.1C793.67,105.82,687.85,0,555.57,0ZM717.61,555.57c0,89.29-72.75,165.35-165.35,165.35H238.1c-89.29,0-165.35-72.75-165.35-165.35V241.41c0-89.29,72.75-165.35,165.35-165.35h314.16c89.29,0,165.35,72.75,165.35,165.35v314.16Z"/>
</svg>