<?xml version="1.0" encoding="UTF-8"?>
<svg id="Layer_1" data-name="Layer 1" xmlns="http://www.w3.org/2000/svg" viewBox="0 0 1052.76 1052.75">
  <defs>
    <style>
      .cls-1 {
        fill: #020202;
      }

      .cls-2 {
        fill: #fff;
      }

      .cls-3 {
        fill: none;
      }
    </style>
  </defs>
  <path class="cls-2" d="M531.15,888.6c-2.19,0-4.27-.08-5.86-.16-1.26.11-2.56.16-3.86.16-45.93,0-76.65-21.72-103.75-40.89-19.43-13.72-37.75-26.68-59.21-30.25-10.54-1.75-21.03-2.63-31.16-2.63-18.26,0-32.68,2.83-43.22,4.89-6.48,1.26-12.07,2.35-16.39,2.35s-10.02-1-12.31-8.83c-1.82-6.17-3.12-12.15-4.37-17.91-3.14-14.39-5.43-23.17-10.81-24-57.61-8.89-91.65-21.98-98.43-37.84-.71-1.67-1.11-3.34-1.2-5-.26-4.73,3.07-8.87,7.73-9.64,45.75-7.53,86.43-31.72,120.92-71.9,26.71-31.11,39.83-60.83,41.24-64.11.06-.15.13-.3.21-.44,6.65-13.49,7.97-25.14,3.94-34.63-7.42-17.51-32.01-25.31-48.27-30.47-4.05-1.28-7.87-2.49-10.92-3.7-14.42-5.7-38.13-17.73-34.97-34.34,2.3-12.11,18.32-20.55,31.27-20.55,3.59,0,6.78.63,9.46,1.89,14.63,6.85,27.79,10.33,39.11,10.33,14.08,0,20.88-5.36,22.52-6.88-.41-7.51-.9-15.45-1.38-22.96,0,0-.01-.1-.01-.1-3.3-52.56-7.43-117.98,9.31-155.49,50.08-112.29,156.28-121.02,187.63-121.02.84,0,13.66-.13,13.66-.13.58-.01,1.21-.02,1.86-.02,31.43,0,137.86,8.74,187.97,121.09,16.73,37.54,12.61,103,9.29,155.62l-.16,2.52c-.45,7.14-.87,13.91-1.23,20.46,1.55,1.42,7.77,6.34,20.43,6.84,10.79-.41,23.19-3.87,36.85-10.26,4.22-1.98,8.9-2.39,12.07-2.39,4.8,0,9.68.93,13.75,2.63l.22.08c11.59,4.11,19.18,12.33,19.34,20.97.15,8.05-5.84,20.08-35.26,31.7-3.01,1.19-6.86,2.41-10.92,3.7-16.28,5.17-40.84,12.96-48.27,30.46-4.03,9.49-2.71,21.14,3.94,34.62.07.15.14.3.21.45,2.05,4.8,51.6,117.79,162.16,136,4.66.78,8,4.93,7.73,9.64-.1,1.7-.51,3.39-1.22,5.05-6.73,15.77-40.77,28.85-98.4,37.75-5.41.84-7.69,9.58-10.8,23.89-1.29,5.91-2.6,11.7-4.39,17.79-1.68,5.73-5.41,8.52-11.4,8.52h-.9c-3.9,0-9.43-.71-16.39-2.07-12.18-2.37-25.84-4.58-43.22-4.58-10.13,0-20.61.89-31.17,2.63-21.44,3.57-39.76,16.5-59.15,30.21-27.16,19.2-57.88,40.92-103.81,40.92"/>
  <path class="cls-1" d="M533.89,173.59c29.59,0,131.5,7.95,179.52,115.61,15.81,35.45,11.76,99.67,8.51,151.26-.51,8.19-1.01,16.12-1.42,23.7l-.17,3.26,2.17,2.43c.88.97,9.1,9.56,27.38,10.27l.29.02h.31c12.09-.47,25.7-4.22,40.49-11.15,2.18-1.02,5.08-1.52,8.14-1.52,3.49,0,7.21.66,10.27,1.95l.46.18c7.75,2.72,13.23,7.84,13.32,12.47.04,2.62-1.91,12.06-29.4,22.92-2.69,1.06-6.22,2.19-10.32,3.48-17.88,5.68-44.9,14.25-54,35.68-5.12,12.07-3.72,26.32,4.16,42.33,3.24,7.57,54.29,122.56,169.17,141.49-.02.54-.16,1.14-.47,1.84-1.95,4.59-14.32,20.43-91.33,32.31-12.05,1.85-15,15.35-18.43,31.06-1.24,5.62-2.49,11.3-4.22,17.16-.53,1.77-.63,1.87-2.52,1.87h-.9c-3.41,0-8.6-.71-14.61-1.89-10.94-2.13-25.89-4.75-45-4.75-10.67,0-21.65.93-32.68,2.77-23.57,3.92-42.73,17.47-63.03,31.82-27.26,19.26-55.43,39.19-98.41,39.19-1.88,0-3.71-.06-5.55-.16l-.48-.02-.49.04c-1.05.09-2.12.14-3.2.14-42.98,0-71.16-19.92-98.41-39.19-20.3-14.35-39.47-27.9-63.04-31.82-11.01-1.83-22.01-2.77-32.67-2.77-19.11,0-34.07,2.92-44.99,5.06-6.01,1.18-11.21,2.18-14.62,2.18-2.79,0-2.84-.16-3.43-2.18-1.73-5.87-2.99-11.68-4.22-17.29-3.43-15.72-6.39-29.3-18.43-31.15-77-11.89-89.38-27.76-91.33-32.34-.31-.72-.44-1.33-.47-1.88,114.87-18.91,165.91-133.91,169.16-141.5,7.9-16.01,9.3-30.25,4.16-42.33-9.09-21.42-36.11-30-53.98-35.67-4.11-1.3-7.65-2.43-10.33-3.49-23.21-9.17-30.35-18.41-29.29-24,1.23-6.45,12.42-13.02,22.19-13.02,2.19,0,4.12.35,5.54,1.02,15.86,7.43,30.34,11.2,43.04,11.2,19.96,0,28.85-9.29,29.8-10.35l2.16-2.42-.17-3.24c-.4-7.57-.9-15.51-1.42-23.68-3.24-51.6-7.29-115.78,8.51-151.23,47.84-107.27,149.25-115.54,179.18-115.54.74,0,13.75-.13,13.75-.13.53,0,1.12-.01,1.74-.01M533.89,155.09h-.03c-.68,0-1.32,0-1.93,0-4.86.05-12.86.13-13.58.14-17.54,0-52.62,2.48-90.31,19.11-21.55,9.51-40.93,22.36-57.61,38.2-19.88,18.88-36.08,42.15-48.13,69.19-17.65,39.59-13.46,106.26-10.1,159.84v.08c.37,5.74.75,11.73,1.1,17.57-2.59,1.19-6.79,2.44-12.98,2.44-9.96,0-21.8-3.18-35.19-9.46-3.94-1.83-8.43-2.76-13.4-2.76-7.97,0-16.37,2.35-23.66,6.63-9.17,5.38-15.09,12.99-16.7,21.43-1.06,5.58-1.01,16.61,11.24,27.8,6.74,6.16,16.64,11.84,29.42,16.89,3.35,1.32,7.33,2.58,11.55,3.92,14.63,4.65,36.77,11.67,42.54,25.26,2.93,6.89,1.67,15.95-3.73,26.91-.14.3-.28.59-.41.9-1.35,3.15-13.94,31.66-39.75,61.73-14.67,17.1-30.83,31.39-48,42.48-20.96,13.55-43.64,22.4-67.4,26.32-9.33,1.53-16,9.85-15.48,19.29.16,2.72.8,5.44,1.91,8.06,0,.02.02.03.03.05,3.77,8.83,12.52,16.32,26.74,22.94,17.38,8.07,43.37,14.86,77.25,20.18,1.71,3.26,3.49,11.44,4.72,17.04,1.29,5.95,2.63,12.07,4.54,18.58,2.07,7.04,7.42,15.46,21.19,15.46,5.22,0,11.21-1.18,18.16-2.52,10.17-2,24.08-4.72,41.45-4.72,9.63,0,19.6.85,29.64,2.52,19.36,3.22,36.04,15.01,55.35,28.66,28.26,19.98,60.25,42.59,109.12,42.59,1.33,0,2.67-.04,3.99-.14,1.62.08,3.62.14,5.73.14,48.89,0,80.87-22.62,109.1-42.58l.05-.04c19.31-13.63,35.98-25.41,55.33-28.63,10.04-1.67,20.01-2.52,29.64-2.52,16.59,0,29.72,2.11,41.45,4.4,7.65,1.51,13.6,2.23,18.16,2.23h.45s.46,0,.46,0c10.07,0,17.46-5.53,20.29-15.19,1.88-6.36,3.21-12.34,4.53-18.4,1.15-5.25,2.99-13.66,4.7-16.95,33.9-5.32,59.88-12.1,77.26-20.17,14.19-6.58,22.93-14.07,26.72-22.86,1.14-2.63,1.8-5.37,1.95-8.15.53-9.43-6.14-17.76-15.48-19.29-105.61-17.41-153.18-125.92-155.15-130.53-.13-.3-.27-.6-.42-.9-5.4-10.96-6.65-20.02-3.72-26.92,5.76-13.58,27.89-20.6,42.52-25.25,4.24-1.33,8.23-2.6,11.56-3.92,14.41-5.69,24.71-11.87,31.5-18.88,8.12-8.36,9.7-16.37,9.6-21.61-.25-12.68-9.94-23.95-25.36-29.47-5.21-2.15-11.15-3.29-17.19-3.29-4.12,0-10.21.57-15.98,3.26-12.36,5.78-23.42,8.94-32.92,9.39-5.05-.26-8.6-1.35-10.89-2.4.29-4.95.61-10.03.94-15.33l.14-2.27c3.38-53.62,7.59-120.35-10.07-159.96-12.11-27.13-28.36-50.47-48.32-69.39-16.74-15.85-36.19-28.7-57.82-38.2-37.64-16.51-72.72-18.98-90.28-18.98"/>
  <rect class="cls-3" width="1052.76" height="1052.75"/>
</svg>